<?xml version="1.0" encoding="UTF-8"?>
<svg xmlns="http://www.w3.org/2000/svg" xmlns:xlink="http://www.w3.org/1999/xlink" id="a" viewBox="0 0 110 70">
  <defs>
    <radialGradient id="b" cx="50.757" cy="15.421" fx="50.757" fy="15.421" r="23.569" gradientUnits="userSpaceOnUse">
      <stop offset="0" stop-color="#dbead4"></stop>
      <stop offset=".373" stop-color="#b7d5ad"></stop>
      <stop offset="1" stop-color="#74af65"></stop>
    </radialGradient>
    <radialGradient id="c" cx="32.718" cy="6.129" fx="32.718" fy="6.129" r="30.604" gradientUnits="userSpaceOnUse">
      <stop offset="0" stop-color="#e8f1f8"></stop>
      <stop offset=".247" stop-color="#c1d2e3"></stop>
      <stop offset=".797" stop-color="#6087b1"></stop>
      <stop offset="1" stop-color="#3b6a9e"></stop>
    </radialGradient>
  </defs>
  <path d="M7.638,52.141c-1.12,0-3.219-.056-5.963-.056v-18.868c1.736-.084,4.563-.14,6.887-.14,4.115,0,6.55,1.596,6.55,4.759,0,1.764-1.119,3.36-2.743,4.088v.083c1.932.504,3.051,2.296,3.051,4.172,0,3.023-2.211,5.962-7.782,5.962M7.862,36.577c-.672,0-1.288.028-1.82.055v4.144c.364.028.784.028,1.288.028,2.128,0,3.163-.868,3.163-2.296,0-1.204-.811-1.931-2.631-1.931M7.498,44.023c-.224,0-1.12,0-1.456.028v4.451c.364.056,1.008.084,1.68.084,1.932,0,3.023-.896,3.023-2.351s-1.203-2.212-3.247-2.212" fill="#535354"></path>
  <polygon points="27.317 36.912 27.317 52.085 22.978 52.085 22.978 36.912 18.443 36.912 18.443 33.189 31.852 33.189 31.852 36.912 27.317 36.912" fill="#535354"></polygon>
  <path d="M41.565,52.141c-1.12,0-3.219-.056-5.963-.056v-18.868c1.736-.084,4.563-.14,6.887-.14,4.115,0,6.55,1.596,6.55,4.759,0,1.764-1.119,3.36-2.743,4.088v.083c1.931.504,3.051,2.296,3.051,4.172,0,3.023-2.211,5.962-7.782,5.962M41.789,36.577c-.672,0-1.288.028-1.82.055v4.144c.364.028.784.028,1.288.028,2.128,0,3.163-.868,3.163-2.296,0-1.204-.812-1.931-2.631-1.931M41.425,44.023c-.224,0-1.12,0-1.456.028v4.451c.364.056,1.008.084,1.68.084,1.931,0,3.023-.896,3.023-2.351s-1.203-2.212-3.247-2.212" fill="#535354"></path>
  <path d="M4.852,58.75c-.036-.098-.049-.218-.115-.288-.101-.109-.232-.197-.364-.27-.073-.04-.178-.057-.261-.041-.438.085-.777.534-.754.98.01.172.209.431.364.473.485.133,1.097-.335,1.13-.854" fill="#535354"></path>
  <path d="M33.744,58.758c-.041-.103-.059-.226-.128-.304-.094-.106-.219-.19-.345-.256-.081-.042-.194-.061-.282-.043-.438.093-.755.515-.743.966.005.183.21.446.377.485.493.115,1.079-.334,1.121-.848" fill="#535354"></path>
  <path d="M2.242,66.765c.254-.003.336-.185.39-.387.181-.678.357-1.357.536-2.036.255-.97.519-1.937.761-2.91.029-.118-.012-.312-.096-.388-.246-.224-.895-.187-1.01.312-.129.556-.287,1.105-.432,1.657-.259.985-.523,1.968-.772,2.955-.101.398.228.801.623.797" fill="#535354"></path>
  <path d="M31.131,66.765c.253-.003.336-.186.39-.387.181-.678.356-1.358.535-2.037.256-.969.52-1.937.761-2.91.03-.117-.012-.311-.095-.387-.248-.225-.896-.187-1.011.312-.128.556-.286,1.105-.431,1.657-.259.985-.524,1.968-.773,2.955-.1.398.228.801.624.797" fill="#535354"></path>
  <path d="M99.381,61.664c-.022-.019-.043-.038-.065-.058,0-.108.004-.215-.002-.323-.005-.108-.015-.216-.032-.323-.042-.257-.206-.429-.427-.454-.31-.035-.458.061-.521.417-.064.364-.055.74-.123,1.103-.161.856-.352,1.707-.523,2.561-.093.461-.193.922-.247,1.389-.04.336.172.548.475.557.368.01.537-.152.585-.506.067-.495.155-.987.246-1.479.038-.204.129-.399.155-.604.097-.749.546-1.278,1.08-1.749.188-.165.412-.305.642-.405.394-.17.484-.127.713.221.017.026.032.053.051.077.164.209.531.327.727.235.233-.11.388-.458.307-.737-.038-.13-.103-.259-.18-.372-.268-.387-.671-.533-1.117-.567-.562-.044-.988.255-1.381.604-.136.12-.243.274-.363.413" fill="#535354"></path>
  <path d="M79.585,61.632c-.015-.242-.017-.458-.044-.671-.035-.268-.213-.438-.448-.456-.299-.023-.436.069-.498.418-.064.364-.055.74-.123,1.102-.16.857-.353,1.707-.523,2.562-.094.476-.193.953-.245,1.435-.033.306.185.502.473.511.36.01.572-.147.575-.483.004-.564.146-1.099.288-1.637.104-.395.138-.83.331-1.175.334-.594.791-1.11,1.425-1.419.416-.203.554-.155.827.231.167.238.541.373.753.273.251-.118.391-.479.294-.781-.116-.359-.356-.609-.701-.757-.624-.269-1.195-.15-1.714.259-.228.18-.438.384-.67.588" fill="#535354"></path>
  <path d="M24.384,65.841c.065.185.096.367.186.511.25.4.763.366.953-.062.079-.18.112-.384.144-.58.094-.571.137-1.153.27-1.713.504-2.118,1.039-4.228,1.551-6.343.027-.111-.001-.274-.069-.359-.168-.209-.412-.31-.682-.266-.23.037-.303.244-.376.433-.035.093-.061.192-.077.29-.044.259-.059.524-.122.777-.443,1.799-.899,3.594-1.342,5.393-.157.636-.291,1.278-.436,1.919" fill="#535354"></path>
  <path d="M27.543,65.838c.064.186.094.367.184.512.249.4.763.369.953-.058.08-.18.113-.383.146-.58.093-.57.135-1.152.269-1.713.504-2.118,1.039-4.228,1.549-6.344.029-.119-.015-.303-.097-.392-.373-.411-.856-.302-1.037.218-.03.087-.053.177-.068.269-.042.258-.058.523-.12.777-.444,1.799-.9,3.595-1.343,5.393-.157.636-.291,1.278-.436,1.918" fill="#535354"></path>
  <path d="M67.096,64.836c-.018-.034-.034-.052-.037-.072-.16-1.123-.311-2.248-.482-3.37-.04-.263-.121-.526-.231-.768-.097-.215-.315-.284-.551-.26-.212.022-.355.165-.393.346-.059.282-.127.589-.074.863.29,1.524.613,3.041.931,4.56.103.497.562.649.946.318.082-.069.154-.154.215-.242.523-.747,1.039-1.499,1.563-2.246.493-.702.996-1.398,1.49-2.1.245-.348.418-.723.389-1.164-.019-.287-.154-.422-.438-.429-.342-.008-.6.166-.753.511-.097.219-.183.443-.286.659-.578,1.209-1.414,2.248-2.199,3.32-.02.028-.055.046-.09.074" fill="#535354"></path>
  <path d="M104.133,62.405c-.028.101-.062.219-.095.338-.182.656-.366,1.31-.339,2.003.028.705.436,1.308,1.06,1.483.523.147,1.039.099,1.532-.15,1.003-.507,1.491-1.421,1.898-2.397.057-.136.053-.28-.11-.358-.156-.073-.279-.031-.384.106-.165.215-.334.427-.512.631-.397.458-.814.901-1.405,1.107-.656.229-1.095-.102-.979-.784s.321-1.349.499-2.02c.016-.061.108-.129.176-.143.837-.18,1.678-.347,2.515-.526.234-.05.429-.175.552-.39.212-.372.061-.649-.366-.659-.106-.003-.216.009-.32.032-.491.103-.98.215-1.471.318-.213.044-.429.076-.67.117.176-.59.345-1.136.502-1.685.082-.288.101-.581-.062-.854-.114-.193-.289-.264-.51-.254-.21.009-.323.138-.391.311-.048.121-.098.254-.093.38.028.743-.324,1.393-.501,2.085-.021.083-.169.175-.268.189-.213.028-.432.008-.649.009-.261,0-.397.112-.477.379-.072.238.037.401.232.497.191.094.4.15.636.235" fill="#535354"></path>
  <path d="M12.851,62.402c-.015.054-.036.127-.056.2-.193.7-.42,1.391-.397,2.132.021.731.446,1.35,1.086,1.507.559.137,1.096.064,1.61-.224.938-.524,1.403-1.403,1.804-2.336.062-.145.053-.276-.105-.355-.143-.071-.266-.044-.37.083-.21.258-.418.518-.637.768-.333.38-.7.724-1.168.936-.743.339-1.193.02-1.12-.785.002-.016.001-.031.005-.046.171-.641.339-1.282.52-1.92.017-.06.107-.128.174-.142.844-.181,1.695-.336,2.534-.538.197-.047.406-.209.526-.377.256-.359.081-.672-.36-.653-.289.012-.576.095-.862.152-.519.104-1.037.211-1.594.325.185-.601.357-1.152.524-1.704.088-.29.101-.579-.058-.852-.109-.186-.273-.259-.486-.254-.207.005-.334.115-.402.294-.052.135-.11.282-.108.423.01.732-.344,1.371-.509,2.058-.036.15-.143.206-.296.201-.209-.007-.418-.002-.627,0-.264,0-.41.113-.486.369-.064.217.004.399.24.516.19.094.402.147.618.223" fill="#535354"></path>
  <path d="M54.098,62.398c-.018.067-.042.147-.063.229-.184.694-.394,1.383-.361,2.116.033.713.456,1.329,1.084,1.491.557.145,1.095.076,1.612-.208.938-.516,1.387-1.398,1.784-2.323.062-.145.066-.293-.106-.378-.155-.077-.278-.034-.383.104-.159.208-.323.415-.495.614-.395.459-.808.904-1.396,1.117-.672.244-1.124-.1-1.002-.803.117-.674.319-1.334.494-1.998.016-.059.108-.126.175-.14.837-.179,1.679-.337,2.512-.533.188-.043.368-.191.509-.332.131-.132.209-.352.078-.509-.093-.111-.281-.155-.436-.196-.09-.024-.198.007-.296.028-.332.072-.661.155-.994.223-.372.077-.747.142-1.146.218.175-.59.339-1.138.499-1.686.088-.299.095-.596-.076-.873-.119-.191-.299-.255-.517-.239-.199.015-.307.138-.37.305-.046.122-.096.254-.092.38.023.724-.317,1.363-.467,2.046-.038.172-.148.256-.337.244-.193-.012-.387-.003-.58-.003-.285,0-.435.114-.502.377-.058.224.023.409.271.525.185.087.39.134.601.204" fill="#535354"></path>
  <path d="M48.459,61.354c-.016-.012-.032-.024-.048-.036.067-.167.137-.335.202-.503.119-.309-.017-.539-.343-.586-.394-.056-.611.072-.75.442-.536,1.431-1.141,2.839-1.473,4.338-.065.293-.134.59-.147.888-.015.34.167.492.503.495.302.003.459-.128.536-.434.198-.785.392-1.571.602-2.352.097-.362.274-.661.613-.882.413-.269.767-.627,1.175-.906.257-.175.554-.31.852-.4.398-.12.628.056.572.463-.062.446-.19.889-.338,1.316-.258.743-.564,1.469-.827,2.211-.084.236-.116.497-.136.748-.02.266.093.365.354.376.414.016.575-.085.716-.476.317-.879.646-1.754.934-2.642.178-.548.336-1.11.422-1.678.116-.76-.253-1.299-.928-1.389-.31-.041-.663-.013-.951.101-.426.167-.813.434-1.213.667-.116.067-.218.159-.327.239" fill="#535354"></path>
  <path d="M7.402,61.354c-.016-.013-.031-.026-.047-.038.07-.176.158-.347.203-.529.029-.116.035-.273-.021-.369-.121-.204-.348-.21-.561-.19-.189.019-.372.07-.446.275-.461,1.294-.936,2.583-1.371,3.885-.158.473-.252.973-.314,1.468-.047.38.168.55.552.536.266-.009.412-.145.486-.439.195-.777.387-1.555.594-2.33.099-.369.276-.677.624-.902.413-.268.767-.627,1.175-.905.256-.175.554-.309.852-.399.396-.119.625.059.568.469-.062.445-.192.888-.34,1.314-.258.744-.566,1.47-.826,2.212-.087.251-.109.528-.133.795-.019.204.106.308.31.324.436.034.617-.078.769-.501.334-.93.681-1.855.989-2.794.16-.488.288-.995.358-1.504.106-.761-.26-1.281-.934-1.392-.209-.035-.435-.028-.644.012-.575.111-1.055.425-1.52.763-.108.079-.215.159-.323.239" fill="#535354"></path>
  <path d="M12.851,62.401c-.216-.076-.428-.128-.618-.223-.236-.117-.304-.299-.24-.515.076-.257.222-.369.486-.37.209,0,.418-.005.627,0,.152.005.26-.051.296-.201.165-.686.519-1.325.509-2.058-.002-.141.056-.287.108-.423.068-.178.195-.288.402-.294.213-.005.378.069.486.254.159.274.146.562.058.852-.167.553-.339,1.104-.524,1.704.557-.114,1.075-.221,1.594-.325.286-.056.573-.14.862-.152.441-.019.616.294.36.654-.12.168-.329.329-.526.376-.839.202-1.689.358-2.534.538-.067.015-.157.082-.174.142-.181.638-.349,1.28-.52,1.92-.004.015-.003.031-.004.046-.074.805.377,1.124,1.119.786.467-.213.835-.557,1.168-.937.219-.25.427-.509.637-.767.104-.128.227-.155.37-.084.158.079.167.211.105.355-.401.933-.866,1.812-1.804,2.337-.514.287-1.051.361-1.61.223-.64-.157-1.065-.776-1.086-1.507-.023-.74.204-1.432.397-2.131.021-.074.041-.147.056-.201" fill="#535354"></path>
  <path d="M104.133,62.405c-.236-.086-.445-.142-.636-.236-.196-.096-.304-.259-.233-.496.081-.268.216-.379.478-.38.217,0,.436.02.649-.009.099-.013.247-.106.268-.189.176-.692.528-1.342.501-2.085-.005-.125.045-.258.093-.379.068-.173.181-.302.391-.312.22-.01.396.062.51.254.162.273.143.566.061.854-.156.55-.325,1.096-.502,1.686.242-.042.458-.073.67-.118.491-.103.98-.215,1.471-.318.105-.022.214-.034.321-.032.427.011.578.287.366.659-.124.216-.318.341-.552.391-.838.179-1.678.345-2.516.525-.067.015-.159.083-.175.144-.178.67-.384,1.338-.499,2.02-.116.682.322,1.012.979.784.591-.206,1.007-.649,1.405-1.107.177-.205.347-.416.512-.631.105-.138.228-.18.383-.106.164.077.167.221.111.357-.408.977-.896,1.891-1.899,2.397-.492.249-1.008.297-1.531.151-.624-.175-1.033-.778-1.06-1.484-.027-.692.157-1.347.339-2.003.033-.118.066-.236.095-.337" fill="#535354"></path>
  <path d="M19.795,63.276c.395-.629.807-1.175,1.539-1.359.106-.027.232-.017.339.012.223.059.298.232.216.449-.1.265-.318.413-.555.532-.468.235-.974.324-1.539.366M19.355,64.446c.035-.122.088-.177.23-.204.643-.121,1.288-.242,1.918-.415.497-.137.939-.41,1.264-.823.327-.417.423-.896.233-1.397-.175-.46-.578-.624-1.029-.676-.47-.055-.921.026-1.347.246-.827.426-1.401,1.102-1.881,1.874-.097.157-.189.298-.37.391-.286.147-.428.606-.245.769.15.133.126.254.099.405-.166.949.276,1.629,1.213,1.844.238.055.488.064.732.095.978-.019,1.858-.3,2.633-.899.231-.178.382-.403.435-.689.055-.302-.105-.452-.397-.354-.166.056-.319.153-.473.241-.315.179-.618.383-.942.542-.415.203-.859.31-1.325.238-.706-.108-.948-.5-.748-1.188" fill="#535354"></path>
  <path d="M37.449,62.354c-.392.884-.946,1.628-1.786,2.131-.17.101-.362.172-.552.228-.174.051-.312-.043-.292-.223.028-.256.059-.53.169-.756.456-.929,1.18-1.614,2.059-2.14.114-.069.256-.093.38-.136.21.326.152.603.022.896M38.023,60.695c-.633-.133-1.265-.089-1.81.276-1.229.821-2.142,1.883-2.418,3.392-.126.689.499,1.437,1.2,1.425.385-.006.722-.167,1.034-.369.316-.205.612-.441.966-.699-.233.916-.435,1.793-1.023,2.522-.283.352-.611.605-1.075.652-.113.012-.224.053-.336.085-.446.126-.63.349-.667.804-.024.286.113.438.4.443.707.009,1.335-.22,1.893-.645.713-.544,1.143-1.293,1.457-2.109.597-1.546.795-3.185,1.07-4.804.084-.493-.191-.868-.691-.973" fill="#535354"></path>
  <path d="M41.476,63.287c.404-.643.818-1.188,1.549-1.374.206-.052.418-.039.537.16.131.218.002.405-.149.556-.348.35-.806.469-1.27.565-.2.041-.406.057-.667.093M41.047,64.43c.035-.114.085-.171.221-.185.7-.071,1.39-.198,2.049-.457.437-.172.84-.404,1.134-.779.333-.424.432-.908.23-1.416-.18-.458-.587-.614-1.037-.664-.471-.051-.921.034-1.346.255-.824.43-1.391,1.111-1.88,1.877-.09.141-.22.268-.357.366-.26.185-.429.615-.248.778.157.141.126.268.099.427-.158.937.284,1.61,1.21,1.826.238.055.488.066.732.097,1.027-.024,1.906-.32,2.653-.909.236-.186.386-.421.426-.718.036-.261-.097-.396-.349-.326-.182.051-.351.155-.519.248-.323.181-.631.393-.963.553-.407.198-.845.302-1.304.232-.715-.108-.964-.514-.751-1.205" fill="#535354"></path>
  <path d="M75.294,63.137c-.269.853-.688,1.584-1.432,2.1-.367.254-.775.383-1.227.3-.443-.082-.707-.363-.698-.817.006-.302.048-.622.158-.901.251-.634.661-1.167,1.184-1.609.275-.233.575-.398.952-.431.278-.025.572-.074.738-.351.377.53.527,1.069.325,1.709M75.789,60.666c-.36-.356-.812-.434-1.29-.289-.276.084-.54.207-.807.317-.085.035-.174.072-.244.13-.441.362-.92.69-1.305,1.105-.817.881-1.33,1.91-1.272,3.156.035.743.496,1.311,1.215,1.478.209.048.427.056.641.082.502-.003.981-.104,1.396-.376,1.276-.838,2.165-1.956,2.378-3.51.111-.803-.131-1.519-.712-2.093" fill="#535354"></path>
  <path d="M95.632,60.669c-.141,1.466-.783,2.743-1.882,3.79-.563.537-1.212.948-1.99,1.078-.351.059-.73.071-1.079.009-.882-.157-1.281-.842-1.085-1.774.173-.823.538-1.568,1.022-2.241.491-.683,1.048-1.318,1.582-1.968.087-.105.208-.184.317-.27.181-.145.34-.216.561-.016.24.218.617.096.763-.235.106-.241.247-.286.49-.242.707.127,1.152.586,1.248,1.327.021.161.032.323.053.542M96.639,60.311c-.036-.794-.302-1.505-.888-2.053-.204-.191-.485-.351-.756-.41-.355-.079-.763-.151-1.035.263-.056-.036-.11-.063-.154-.101-.457-.39-1-.41-1.473-.031-1.256,1.008-2.303,2.197-3.082,3.612-.481.877-.821,1.789-.785,2.82.035.993.616,1.826,1.565,2.129.654.21,1.315.172,1.968.011,2.672-.662,4.765-3.479,4.64-6.24" fill="#535354"></path>
  <path d="M70.015,48.366c.404-.643.818-1.188,1.549-1.374.206-.052.418-.039.537.16.131.218.002.405-.149.556-.348.35-.806.469-1.27.565-.2.041-.406.057-.667.093M69.586,49.509c.035-.115.086-.171.221-.185.7-.071,1.39-.198,2.049-.457.437-.172.84-.404,1.134-.779.333-.424.432-.908.231-1.417-.182-.457-.588-.614-1.038-.663-.471-.051-.921.033-1.346.255-.824.43-1.391,1.111-1.88,1.877-.09.141-.22.267-.357.365-.26.186-.429.616-.248.779.157.141.126.268.099.427-.158.937.284,1.61,1.21,1.826.238.055.488.066.732.097,1.027-.024,1.906-.32,2.653-.909.236-.186.386-.421.426-.718.036-.261-.097-.396-.349-.326-.182.051-.351.155-.519.248-.323.181-.63.392-.963.553-.407.198-.845.301-1.304.232-.715-.108-.964-.514-.751-1.205" fill="#535354"></path>
  <path d="M90.802,48.366c.404-.643.818-1.188,1.549-1.374.206-.052.418-.039.537.16.131.218.002.405-.149.556-.348.35-.806.469-1.27.565-.2.041-.406.057-.667.093M90.373,49.509c.035-.115.085-.171.221-.185.7-.071,1.39-.198,2.049-.457.437-.172.84-.404,1.134-.779.333-.424.432-.908.231-1.417-.181-.457-.588-.614-1.038-.663-.471-.051-.921.033-1.346.255-.824.43-1.391,1.111-1.88,1.877-.09.141-.22.267-.357.365-.26.186-.429.616-.248.779.157.141.126.268.099.427-.158.937.284,1.61,1.21,1.826.238.055.488.066.732.097,1.027-.024,1.906-.32,2.653-.909.236-.186.386-.421.426-.718.036-.261-.097-.396-.349-.326-.182.051-.351.155-.519.248-.323.181-.63.392-.963.553-.407.198-.845.301-1.304.232-.715-.108-.964-.514-.751-1.205" fill="#535354"></path>
  <path d="M86.374,51.931c-.395.003-.724-.399-.624-.798.25-.987.514-1.97.773-2.955.145-.552.303-1.101.432-1.657.115-.499.764-.536,1.01-.311.084.076.125.27.096.387-.242.973-.506,1.941-.762,2.91-.179.679-.354,1.359-.535,2.037-.054.201-.137.383-.39.387" fill="#535354"></path>
  <path d="M88.984,43.914c-.033.519-.645.987-1.13.855-.155-.043-.354-.302-.364-.473-.023-.447.316-.896.754-.98.083-.016.188,0,.261.04.132.073.263.161.364.27.066.071.079.19.115.288" fill="#535354"></path>
  <path d="M83.573,47.492c-.392.884-.946,1.628-1.786,2.131-.17.101-.362.172-.552.228-.174.051-.311-.043-.292-.223.028-.256.059-.53.17-.757.455-.928,1.179-1.613,2.058-2.139.114-.069.256-.093.38-.136.211.326.152.603.022.896M84.147,45.834c-.633-.133-1.265-.089-1.81.276-1.229.821-2.142,1.883-2.418,3.393-.126.688.499,1.436,1.2,1.424.385-.006.722-.167,1.034-.369.316-.205.612-.441.966-.699-.233.916-.435,1.793-1.023,2.522-.283.352-.61.605-1.074.652-.114.012-.225.053-.336.085-.447.126-.631.349-.668.804-.024.286.113.438.4.442.707.01,1.335-.219,1.893-.644.713-.544,1.143-1.293,1.457-2.109.597-1.546.795-3.185,1.07-4.804.084-.493-.19-.868-.691-.973" fill="#535354"></path>
  <path d="M63.862,46.517c.109-.08.211-.172.327-.239.4-.232.787-.5,1.213-.667.288-.113.641-.142.95-.101.676.09,1.044.629.929,1.389-.086.568-.244,1.13-.422,1.678-.289.888-.617,1.763-.934,2.642-.141.391-.303.492-.716.476-.262-.011-.374-.11-.354-.375.019-.252.052-.513.136-.749.263-.741.568-1.468.826-2.211.148-.427.277-.87.338-1.316.057-.407-.174-.582-.572-.462-.298.089-.595.224-.851.399-.408.279-.762.637-1.175.906-.339.221-.517.52-.614.882-.21.781-.404,1.567-.601,2.352-.078.306-.235.437-.537.435-.336-.004-.518-.156-.502-.496.013-.298.082-.595.147-.888.331-1.499.937-2.907,1.473-4.338.138-.37.355-.498.749-.442.327.047.462.277.343.586-.065.168-.134.336-.202.503.017.012.033.024.049.036" fill="#535354"></path>
  <path d="M76.702,46.784c.12-.139.226-.293.362-.414.394-.348.819-.647,1.382-.604.446.035.849.181,1.116.568.078.112.143.241.18.372.081.279-.073.627-.306.737-.197.092-.563-.026-.727-.235-.019-.024-.034-.052-.051-.077-.229-.348-.319-.392-.714-.221-.23.1-.453.239-.641.405-.534.471-.983,1-1.08,1.749-.026.205-.118.4-.156.604-.09.491-.178.984-.245,1.479-.049.354-.217.516-.585.506-.303-.009-.515-.221-.476-.558.054-.466.155-.927.248-1.388.171-.854.362-1.705.523-2.561.068-.363.058-.74.123-1.103.063-.356.211-.452.521-.417.22.025.384.197.426.454.018.107.028.215.033.323.006.108,0,.215,0,.323.022.019.044.039.066.058" fill="#535354"></path>
  <path d="M102.936,51.181c-.006-.588.641-1.098,1.207-.951.197.051.369.278.394.522.049.476-.437,1.049-.917,1.08-.424.028-.679-.216-.684-.651" fill="#535354"></path>
  <path d="M99.827,51.14c.013-.558.633-1.037,1.184-.914.227.05.431.354.423.629-.015.471-.521.973-.987.978-.404.004-.63-.249-.62-.693" fill="#535354"></path>
  <path d="M96.718,51.163c.003-.561.595-1.044,1.154-.941.244.046.45.317.454.599.007.475-.498,1.003-.969,1.012-.411.008-.641-.233-.639-.67" fill="#535354"></path>
  <path d="M56.703,47.19c.027-.008.349-.11.418-.127.212-.08.748-.239.87-.278.138-.044.277-.086.416-.129.21-.066.845-.245,1.028-.303.045-.015.433-.142.5-.157.195-.045.552-.063.583.216.009.086-.018.154-.032.234-.01,0,.001.242-.77.57-.224.095-.466.146-.681.224-.163.06-1.189.431-1.28.468-.136.057-.272.111-.409.165-.089.036-.729.278-.795.298-.082.025-.567.198-.569.198-.401.08-.453.709-.584,1.252-.057.239-.124.414-.105.663.012.164.161.185.304.175.204-.016.389-.021.568-.068.883-.235.912-.241,1.643-.55.036-.015.454-.239.474-.252.123-.083.214-.142.321-.191.124-.057.242-.1.373-.137.113-.032.231-.05.348-.051.043,0,.314.019.314.058.275.091.161.375.031.55-.065.086-.145.159-.233.222-.038.047-.339.27-.418.291-.016.033-1.002.518-1.05.518,0,.022-.777.304-.887.343-.137.048-.275.092-.412.14-.29.101-.61.152-.911.198-.238.037-.473.067-.714.066-.133,0-.268.002-.401-.012-.049-.005-.123.012-.279-.056-.163-.085-.217-.106-.305-.248-.083-.135-.105-.279-.103-.468.003-.369.092-.551.191-.92.013-.047.347-1.114.374-1.191.047-.134.091-.268.135-.402.046-.138.217-.711.238-.765.034-.091.142-.47.158-.524.254-.856.477-1.654.75-2.52.025-.081.161-.489.284-.8.052-.106.209-.516.326-.711.161-.327.444-.454.821-.356.083.027.152.074.204.135.024.028.081.183.076.183.008.024.025.1.025.127.075,0,.142-.016.215-.031.152-.03.304-.06.456-.091.282-.056.558-.139.84-.195.362-.073,1.449-.282,1.606-.303.29-.039.536-.026.81,0,.119.011.239.031.35.076.06,0,.259.157.257.282-.002.117-.052.229-.133.307-.153.146-.382.214-.586.233-.07.007-.94.162-1.17.198-.198.032-.331.076-.507.112-.14.029-.241.063-.455.12-.138.032-.678.202-.759.225-.181.052-.401.103-.582.168-.084.037-.311.128-.354.139-.179.075-.248.121-.333.194-.091.079-.194.268-.224.337-.021.063-.569,1.468-.614,1.597-.037.109-.273.603-.183.668.079.058.236-.021.531-.114" fill="#535354" fill-rule="evenodd"></path>
  <path d="M49.181,28.206s-21.248.011-21.233-.002c.183-.1,14.114-21.511,43.5-21.169,3.375,1.694,6.502,3.356,9.906,5.097-21.758-.832-32.17,16.077-32.173,16.074" fill="url(#b)" fill-rule="evenodd"></path>
  <path d="M22.777,28.206H1.364c.041-.021,16.605-26.615,57.886-27.433,2.585,1.312,5.045,2.568,7.666,3.88-29.578.044-44.106,23.531-44.139,23.553" fill="url(#c)" fill-rule="evenodd"></path>
</svg>
